<svg width="20" height="20" viewBox="0 0 20 20" fill="none" xmlns="http://www.w3.org/2000/svg">
<path d="M10 1V3.25M16.364 3.636L14.773 5.227M19 10H16.75M16.364 16.364L14.773 14.773M10 16.75V19M5.227 14.773L3.636 16.364M3.25 10H1M5.227 5.227L3.636 3.636M13.75 10C13.75 10.9946 13.3549 11.9484 12.6517 12.6517C11.9484 13.3549 10.9946 13.75 10 13.75C9.00544 13.75 8.05161 13.3549 7.34835 12.6517C6.64509 11.9484 6.25 10.9946 6.25 10C6.25 9.00544 6.64509 8.05161 7.34835 7.34835C8.05161 6.64509 9.00544 6.25 10 6.25C10.9946 6.25 11.9484 6.64509 12.6517 7.34835C13.3549 8.05161 13.75 9.00544 13.75 10Z" stroke="#171717" stroke-width="2" stroke-linecap="round" stroke-linejoin="round"/>
</svg>
